<?xml version="1.0" encoding="UTF-8" standalone="no"?>
<svg
   xmlns:dc="http://purl.org/dc/elements/1.1/"
   xmlns:cc="http://creativecommons.org/ns#"
   xmlns:rdf="http://www.w3.org/1999/02/22-rdf-syntax-ns#"
   xmlns:svg="http://www.w3.org/2000/svg"
   xmlns="http://www.w3.org/2000/svg"
   xmlns:sodipodi="http://sodipodi.sourceforge.net/DTD/sodipodi-0.dtd"
   xmlns:inkscape="http://www.inkscape.org/namespaces/inkscape"
   width="64"
   height="64"
   viewBox="0 0 64 64"
   fill="none"
   version="1.1"
   id="svg13"
   sodipodi:docname="logo.svg"
   inkscape:version="1.0.1 (3bc2e813f5, 2020-09-07)">
  <metadata
     id="metadata17">
    <rdf:RDF>
      <cc:Work
         rdf:about="">
        <dc:format>image/svg+xml</dc:format>
        <dc:type
           rdf:resource="http://purl.org/dc/dcmitype/StillImage" />
      </cc:Work>
    </rdf:RDF>
  </metadata>
  <sodipodi:namedview
     pagecolor="#ffffff"
     bordercolor="#666666"
     borderopacity="1"
     objecttolerance="10"
     gridtolerance="10"
     guidetolerance="10"
     inkscape:pageopacity="0"
     inkscape:pageshadow="2"
     inkscape:window-width="1920"
     inkscape:window-height="1017"
     id="namedview15"
     showgrid="false"
     inkscape:zoom="6.640625"
     inkscape:cx="40.138506"
     inkscape:cy="43.799327"
     inkscape:window-x="-8"
     inkscape:window-y="-8"
     inkscape:window-maximized="1"
     inkscape:current-layer="svg13" />
  <defs
     id="defs11">
    <radialGradient
       id="paint0_radial"
       cx="0"
       cy="0"
       r="1"
       gradientUnits="userSpaceOnUse"
       gradientTransform="translate(61.8732 2.63097) scale(73.3111)">
      <stop
         offset="0.00343514"
         stop-color="#EF4857"
         id="stop4" />
      <stop
         offset="0.4689"
         stop-color="#D211EC"
         id="stop6" />
      <stop
         offset="1"
         stop-color="#7F52FF"
         id="stop8" />
    </radialGradient>
  </defs>
  <path
     style="fill:#4284f5;stroke-width:0.216182;fill-opacity:1"
     d="m 27.189053,60.946069 c -2.279796,-0.537307 -4.741999,-2.533126 -5.696103,-4.617162 -0.781997,-1.70811 -0.947958,-3.155778 -0.949356,-8.281185 l -0.0012,-4.593865 -4.593865,-0.0013 c -2.526642,-6.6e-4 -5.160136,-0.09398 -5.852226,-0.207321 C 7.2291443,42.775664 4.8796776,40.989682 3.6138523,38.317505 L 2.9235546,36.860278 2.8614563,23.800271 C 2.8190442,14.887914 2.8750423,10.375544 3.0377371,9.5918442 3.5003514,7.3634449 5.0941307,5.1495626 7.0709539,3.989396 9.0721028,2.8149529 9.4333441,2.7903886 23.713303,2.8577173 l 13.150771,0.062005 1.457228,0.6902975 c 2.672177,1.2658258 4.45816,3.6152923 4.92773,6.4824512 0.113347,0.69209 0.206648,3.325584 0.207338,5.852209 l 0.0013,4.593866 4.593866,0.0013 c 2.526625,6.75e-4 5.16012,0.09399 5.852208,0.207338 2.867161,0.469571 5.216626,2.255552 6.482452,4.927729 l 0.690296,1.457227 0.06208,13.060008 c 0.04236,8.912354 -0.01365,13.424726 -0.17631,14.208426 -0.462109,2.225949 -2.05639,4.442269 -4.027734,5.599232 -1.968104,1.15506 -2.354648,1.18277 -16.170522,1.159264 -7.019867,-0.01195 -13.128581,-0.107786 -13.574942,-0.212985 z m 27.181348,-5.231853 c 0.482375,-0.273203 1.074376,-0.865205 1.34758,-1.34758 l 0.487259,-0.860321 0.0036,-12.524342 c 0.0035,-12.229302 -0.007,-12.546126 -0.444161,-13.44917 -0.262808,-0.542887 -0.776168,-1.129077 -1.243045,-1.41939 -0.760747,-0.473047 -1.017854,-0.497521 -5.910423,-0.562582 l -5.115081,-0.06803 -0.08253,5.472571 c -0.07494,4.969213 -0.125868,5.589603 -0.553655,6.744981 -0.87002,2.349771 -2.80602,4.285771 -5.155791,5.15579 -1.155378,0.427787 -1.775768,0.478712 -6.744981,0.553655 l -5.472571,0.08253 0.06802,5.13156 c 0.06714,5.064611 0.07507,5.141937 0.608477,5.926993 0.297249,0.43749 0.929581,0.989367 1.405182,1.226396 0.834157,0.415727 1.307991,0.430842 13.403276,0.427575 l 12.53855,-0.0034 0.860321,-0.487259 z M 20.586552,33.023081 c 0.07478,-4.95502 0.12584,-5.575977 0.553499,-6.731004 0.87002,-2.349772 2.806019,-4.285771 5.155791,-5.155791 1.155377,-0.427789 1.775767,-0.478712 6.74498,-0.553655 l 5.472571,-0.08253 -0.06802,-5.11508 C 38.380305,10.492448 38.355833,10.235339 37.882787,9.4745946 37.592474,9.0077168 37.006284,8.4943558 36.463396,8.2315482 35.560353,7.7943926 35.243528,7.7839301 23.014225,7.7874025 L 10.489884,7.790983 9.6295629,8.2782421 C 9.1471862,8.5514453 8.5551864,9.1434459 8.2819831,9.6258226 l -0.4872598,0.8603214 -0.00358,12.524341 c -0.00344,12.186358 0.00839,12.549035 0.4394234,13.439414 0.4532002,0.936187 1.1407194,1.524623 2.132519,1.825189 0.307526,0.0932 2.715073,0.177808 5.350103,0.188029 l 4.790962,0.01857 z m 15.628977,5.052013 c 2.053877,-0.943146 2.269909,-1.675332 2.269909,-7.693297 v -4.871036 h -4.871035 c -6.017966,0 -6.750153,0.216032 -7.693298,2.26991 -0.347828,0.75746 -0.397673,1.474805 -0.401832,5.782865 l -0.0047,4.918138 4.918137,-0.0047 c 4.308059,-0.0042 5.025405,-0.054 5.782865,-0.401832 z"
     id="path856" />
</svg>
